# xmcd CD database file
#
# Track frame offsets:
#	150
#	21142
#	39344
#	66208
#	88439
#	111888
#	132094
#	149979
#	167683
#	188169
#	209251
#	230425
#	251766
#
# Disc length: 3637 seconds
#
# Revision: 4
# Processed by: cddbd v1.5.2PL0 Copyright (c) Steve Scherf et al.
# Submitted via: CDex 1.70beta3
#
DISCID=c00e330d
DTITLE=BENI - COVERS 2
DYEAR=0
DGENRE=blues
TTITLE0=Lovers Again
TTITLE1=白い恋人達
TTITLE2=歌うたいのバラッド
TTITLE3=PIECES OF A DREAM
TTITLE4=楽園
TTITLE5=チェリー
TTITLE6=クリスマス・イブ
TTITLE7=はじまりはいつも雨
TTITLE8=I LOVE YOU
TTITLE9=小さな恋のうた
TTITLE10=接吻
TTITLE11=永遠に
TTITLE12=Squall
EXTD=YEAR: 0
EXTT0=
EXTT1=
EXTT2=
EXTT3=
EXTT4=
EXTT5=
EXTT6=
EXTT7=
EXTT8=
EXTT9=
EXTT10=
EXTT11=
EXTT12=
PLAYORDER=
